/* XPM */
static char *result[] = {
/* columns rows colors chars-per-pixel */
"64 64 243 2 ",
"   c #000000",
".  c #0D0B0A",
"X  c #0A0806",
"o  c #150E0D",
"O  c #17110E",
"+  c #1A1716",
"@  c #22120E",
"#  c #241512",
"$  c #291611",
"%  c #2C1A14",
"&  c #251D1B",
"*  c #271C17",
"=  c #331C15",
"-  c #391E16",
";  c #331E18",
":  c #391F18",
">  c #34221A",
",  c #3B231B",
"<  c #3D261A",
"1  c #2C241B",
"2  c #1D1D23",
"3  c #1F1F28",
"4  c #1E222C",
"5  c #24242C",
"6  c #2A2426",
"7  c #3C2A24",
"8  c #372A27",
"9  c #39312A",
"0  c #232632",
"q  c #252936",
"w  c #2B2B35",
"e  c #262B3A",
"r  c #2B2E3C",
"t  c #282732",
"y  c #322F34",
"u  c #2D313D",
"i  c #363438",
"p  c #221E21",
"a  c #43251B",
"s  c #45281E",
"d  c #4A2A1E",
"f  c #442519",
"g  c #532F1F",
"h  c #432C24",
"j  c #4C2E22",
"k  c #482D28",
"l  c #532E21",
"z  c #4C352A",
"x  c #483328",
"c  c #533124",
"v  c #54362C",
"b  c #543B2B",
"n  c #5B3B2C",
"m  c #5C3728",
"M  c #483B37",
"N  c #543C33",
"B  c #5A3C35",
"V  c #623B28",
"C  c #653D32",
"Z  c #4B4139",
"A  c #5B4233",
"S  c #56443A",
"D  c #64412F",
"F  c #6D432E",
"G  c #634231",
"H  c #6C4532",
"J  c #6C4A35",
"K  c #68493B",
"L  c #734C36",
"P  c #744937",
"I  c #74533D",
"U  c #7C543C",
"Y  c #6C4936",
"T  c #2C3244",
"R  c #2E3649",
"E  c #313443",
"W  c #313649",
"Q  c #343A4D",
"!  c #3C3C48",
"~  c #373D50",
"^  c #3A3E52",
"/  c #292F42",
"(  c #3E4253",
")  c #3C404F",
"_  c #584A45",
"`  c #5A5857",
"'  c #4E4B4E",
"]  c #664A43",
"[  c #774F41",
"{  c #695548",
"}  c #745344",
"|  c #7C5B44",
" . c #7D5B4C",
".. c #765649",
"X. c #695B55",
"o. c #795C52",
"O. c #79614C",
"+. c #6A615B",
"@. c #796458",
"#. c #676565",
"$. c #786C64",
"%. c #7B736D",
"&. c #7A7674",
"*. c #6B6D78",
"=. c #5D5F65",
"-. c #82573E",
";. c #824D3E",
":. c #845C43",
">. c #865A48",
",. c #825D52",
"<. c #8B5B53",
"1. c #985C54",
"2. c #8F4E4A",
"3. c #8A644A",
"4. c #896348",
"5. c #966A4B",
"6. c #886857",
"7. c #976959",
"8. c #997258",
"9. c #8D725A",
"0. c #A47758",
"q. c #A6675C",
"w. c #876C62",
"e. c #986A64",
"r. c #86756B",
"t. c #957362",
"y. c #9B7564",
"u. c #9B7B6C",
"i. c #997768",
"p. c #877C74",
"a. c #9D7971",
"s. c #A66863",
"d. c #A37D6C",
"f. c #AB7C6B",
"g. c #A67765",
"h. c #B47966",
"j. c #AD7D72",
"k. c #A77973",
"l. c #B57C79",
"z. c #7F807F",
"x. c #AD825E",
"c. c #8C837D",
"v. c #86827D",
"b. c #97867C",
"n. c #95806C",
"m. c #A9836D",
"M. c #B2836D",
"N. c #B38666",
"B. c #AC8573",
"V. c #A28B7D",
"C. c #AA8878",
"Z. c #B48573",
"A. c #B38A75",
"S. c #BB8D75",
"D. c #B78A7A",
"F. c #BA917C",
"G. c #BD9077",
"H. c #B8906E",
"J. c #C48D77",
"K. c #C5947D",
"L. c #D3977C",
"P. c #8B8986",
"I. c #898785",
"U. c #948B84",
"Y. c #9B8D84",
"T. c #958B84",
"R. c #9B928C",
"E. c #99918A",
"W. c #999692",
"Q. c #9C9995",
"!. c #9E9C99",
"~. c #959596",
"^. c #8E908E",
"/. c #A58D81",
"(. c #BC8E83",
"). c #B48C84",
"_. c #A2948B",
"`. c #A8978B",
"'. c #B89688",
"]. c #A39A94",
"[. c #AB9C93",
"{. c #A39E9A",
"}. c #A09792",
"|. c #BB9B91",
" X c #A5A19D",
".X c #ACA29B",
"XX c #AFA296",
"oX c #BDA394",
"OX c #B3A59C",
"+X c #B7A699",
"@X c #BBA089",
"#X c #A6A5A2",
"$X c #ABA6A2",
"%X c #ADA9A5",
"&X c #AEADAB",
"*X c #B4ABA4",
"=X c #BAAEA4",
"-X c #B2AEAA",
";X c #BAAFA8",
":X c #BDB0A6",
">X c #B5B2AD",
",X c #BCB2AB",
"<X c #B6B5B1",
"1X c #BAB6B2",
"2X c #BDBAB6",
"3X c #BEBCB9",
"4X c #C29383",
"5X c #CB9C86",
"6X c #CC9C8C",
"7X c #C79787",
"8X c #D39E88",
"9X c #C99C94",
"0X c #D39589",
"qX c #D5A58B",
"wX c #C7A697",
"eX c #D3A395",
"rX c #D5A59C",
"tX c #D9AA97",
"yX c #DAB29B",
"uX c #CDA48C",
"iX c #E5B398",
"pX c #E3AB95",
"aX c #C2B2A6",
"sX c #C3B5AC",
"dX c #C6B8AE",
"fX c #CABAAE",
"gX c #CAB7A9",
"hX c #D9B7A5",
"jX c #C6BAB1",
"kX c #CABCB2",
"lX c #C2BDBA",
"zX c #C2B7B0",
"xX c #CEACA2",
"cX c #E6BBA3",
"vX c #F3BDA4",
"bX c #E19F91",
"nX c #CCC3BC",
"mX c #C9C1B9",
"MX c #D3C2B6",
"NX c #D7C6BA",
"BX c #EFC2AB",
"VX c #CCC7C2",
"CX c #D2CBC5",
/* pixels */
"                                                                  + K 9.9.O.Z O X X                                             ",
"                                                                1 3.5.5.5.0.x.x.3.Z .                                           ",
"                                                            X 7 4.L U -.5.0.x.x.N.H.n.1                                         ",
"                                                          + I 4.U 8.x.x.x.x.5.5.5.x.x.H.S                                       ",
"                                                        O K D U 4.4.5.5.4.5.5.5.x.5.5.5.x.Z                                     ",
"                                                        K I J D f m m D L -.4.4.U 5.8.4.| x.9                                   ",
"                                                      1 9.J D D J U L J J J F U | 4.4.8.4.4.9.O                                 ",
"                                                    . | J n D J -.-.-.-.L J J F D D I O.3.| 3.{                                 ",
"                                                    h | L L 3.5.5.4.4.-.H F L G A A v G | O.I 3.1                               ",
"                                                    K U U -.0.8.0.5.0.5.:.U L P D b S b b I G J O.                              ",
"                                                  * J U 5.g.N.H.S.K.J.N.g.3.:.I D b b N h x A b O.O                             ",
"                                                  A J L U x.K.K.7X0X5X5X4XA.g.6.I b b z x > x z G M                             ",
"                                                X O.b m L g.J.K.7X5X6X6X6X6X4XD.t.K v z b 7 8 < j O.                            ",
"                                                + 3.g d H h.J.K.5X6XeXrXeXeX6X9X(.C.{ k z x , > > 9.+                           ",
"                                                9 9.j < H j.S.K.8XtXtXpXtXtXeXeXeXeX9Xi.N k h 7 * @._                           ",
"                                                S | c = I S.K.0X6XtXrXrXrXeXrXrXxXxXxXwX/.K 7 7 1 K O.                          ",
"                                                U F V < [ Z.l.N.g.f.).7X9X0X9X9X(.).).).)./.B * @ A O.o                         ",
"                                              X -.F ;.m } >.>.[ C C C 2.s.l.k.<.P K ..<.w.a.X.8 @ b O.#                         ",
"                                              # -.m ;.P B.7 K v B 8 k B v <...v k 9 _ B o.M o.B % b 4.1                         ",
"                                              < ;.g 1.P K.e.7.6.,.] ] o.B k 6 w.] ] r.a.D.w.+XB > b O.1                         ",
"                                            X b P f 0.5.4XS.g.(.k.a.e.<.] rXk.a.k.k./.'.9Xa.+Xk , m | 9                         ",
"                                            X J F f P h.J.6Xj.0X9X(.).e.<.rXrXe.).'.9X9X).|.|.h > n O.S                         ",
"                                            + U V f f H j.7XD.k.k.k.g...l.bXrXa.e.k.l.)./.xX).@ > D I {                         ",
"                                            > U V f - = <.J.4X(.k.1.2.s.0X0XrX9Xe.<.k.).9X9X{ o $ D I O.X                       ",
"                                            7 U V f - = L Z.Z.Z.s.1.1.h.L.0X9X9Xl.e.s.D.|.|._ o @ n U O.o                       ",
"                                          X x F g d f = l Z.f.g.q.1.1.1.2.s.s.k.l.l.e.k.'.'.8 @ @ g U I +                       ",
"                                          X b V d g - = : 8.M.m.s.e.s.g.e.1.s.l.4X).C.C.'.b.# # $ f L I *                       ",
"                                          o D V g f - = : G M.M.g.3.2.2.2.2.2.s.k.e.k.F.`.] # $ $ d J I &                       ",
"                                          1 J V f f - - - = -.g.f.f.j.s.q.s.s.l.(.9XF.V.t.% $ % % g F I o                       ",
"                                          1 U F < d - = $ % f 4.0.h.S.h.1.1.1.l.(.'.'.u.8 $ $ = > g D S X                       ",
"                                          9 4.L f d > = $ = $ d >.g.j.j.l.k.l.(.'.'.C.N # * $ > > c G A X                       ",
"                                      . Z i.5.4.d f - $ $ $ $ - m >.h.D.4Xl.4X9XwX'.] O % @ $ , < A G S .                       ",
"                                  + $.V.wXA.3.U l j : % $ @ % = j C 2.h.j.j.k.A.).6.$ # = @ $ : h v n A .                       ",
"                              1 r.MXMX@X@Xm.3.} l l f k <.h % ; a m C [ >.<.,.6.,.j $ % ; @ $ h h l n N o                       ",
"                      O 9 ` _.NXNXMXoX@XF.n.>.K j l l J.bXj.# $ : j C P [ .. .} C h % : ; # 7 h , j n S O                       ",
"                X Z Y.MXNXMXMXkXgX=XoXXX@Xn.| b c l h.eX7X,.% # : h B ] ,.,.,.[ C 7 ; : ; 8 { N : h G A o                       ",
"              6 U.kX:XaXMXkXfXkXgXaX@X+X[.C.| K V C qXL.D.7 % # $ 7 v ]  .,.,...v : ; % ; Z %.k % A } S .                       ",
"          + v.MXNXNXMXaX[.aXkXgXgX+X+X+XyX'.4.K C h.cXtX{ % # @ O : j K  .,.o.[ z > ; % * x 6.8 = { A ] X                       ",
"        X R.MXMXMXkXjXjX;X_.*XdXaXaX+XyXbX6X9.I 4.iXBX@X7 # * + O : v ] ] o.,.] h ; $ % # 7 x 1 , N 6.n.`                       ",
"        $.MXMXkXkXkXkXjXdXaX_.OXfXgXtXpX5X|.y.U L.cXMXw.6 & & & + h { ..] o.o...S 8 # * ; Z , 7 { b.]./.@Xv.+                   ",
"      i MXMXsXdXkXkXjXjXsXsX=Xb.`.yXtXL.(.9XF.0.iXyXuXS 8 1 6 6 2 6 h _ o.O.@..._ 9 p # < _ 7 @.E.R.XXXX+XaX-XZ                 ",
"      Y.MXgXmX:X*XjXkXsX,X,X:X*XC.qXJ.h.'.iXiXpXqXuXC.A 8 1 6 6 3 y p p 6 w y 5 3 2 + O > > { U.XXY.XXOX+X+XsXMXQ.p             ",
"    6 sXMXmXfXdX=X+XjXjXsX,X;XaXtX5Xh.M.iXvXiXiXyXoX6.z 8 6 6 0 5 y t 6 3 3 4 4 0 4 2 O # 1 @.!. Xb.`.R.:X+X:X,XMXnX+.X         ",
"    X.fXfXdXsXsX:XOX1X,X,XsX:XxXtXK.q.pXBXvXyXcXyX'...b 6 6 5 5 t 9 t t 0 0 0 0 0 0 + + # 1 @.%XE.U.R.Y.-XXX=X:XdXnXCXv..       ",
"    b.fXgXkXjX,X:XXX:XdX,X:XaXiXqXh.J.BXBXvXiXiXrXg.tXB.8 t 0 t w i w q q q q e 0 0 2 i Z _ c. XP.W.E.E.*XOX*X:X,XjXnXnXv.      ",
"  . dXdX:XdXjXdX-XXXXX,X,X:XxXyXL.L.iXvXBXvXiXyXwX8XBXgXZ u 0 q y i u e e e e / e q 0 ` %.z.E.W.P. XR.R.-XOXOX-X=X1XmXnXCXi     ",
"  9 MXdX:XsXjX1X>XXXR.:X,X,XwXqXpXpX5X5XhXiXiXhXxXtXcXfXM T w t r i u / T / / / / q 4 #.z.I.^.c.c. XU.!.>X.X.XOX%X1X2XmXCX-XO   ",
"  &.fXdX:X+XsX,X=XOX_.=X,X:XwXqXiXL.G.F.5XpXiXcXcXhXhXhX_ E E q i u T T T T T T / 0 2 &.P.#X%XI.c.].b._.*X.X.XOX-X-X>X3XVXVX`   ",
"  XXmXdXsXOX=XsX*XOX/.[.1X,XwXeXuX'.G.m.K.qXeXhXcXcXhXhXY.i Q r u u T R R R T T / 0 2 &.~.&X#XP.U.%XE.].1X>X*X-X>X*X<XmXmXVXz.  ",
"o fXdXdX:XOX].=X;XOX_.}.sX1XoX5X7XF.A.m.A.M.S.uXcXBXhXBXsX! ^ / u T T R R R R R e 0 + #.#X<X#XP.!.%XE. X,X>X>X>X>X-X<XlXlX3X>XX ",
"9 kXkXjXzX:XXX[.:XXX].Y.,XjXoXF.F.A.B.B.M.g.d.F.7XhXcXBXNX#.( Q u u R R R R R T / 0 2 ` &X<X#XW.%X#XW. X<X<X>X>X-XOX>X3X3X<X<X2 ",
"X.kXkXdX:X,XOX[.*X=X_.p..XdX+XG.A.A.Z.A.y.d.d.g.g.F.tXhXkX{.( ( E T R R R Q R T e 0 3 #.&X<X X{.>X#XW.%X<X>X>X>X>X-X<XmX>X<X Xy ",
"v.fXdX,X,X:X*X=X:X,X*Xr.`.:XwXG.A.A.A.m.d.d.g.i.i.y.A.wXfXlX' ( W T T Q R Q R T q 3 t &.&X-XQ. X2X#XW. X<X<X-X>X-X>X<XlX#X&X!.) ",
"`.mXdX,X,X:X+X[.XX,XjXE.c.:XuXK.G.A.B.d.d.u.i.d.u.y.d.+XjXnX*.( W E T Q ~ ~ R R e 0 i I.-X%XQ.%X2X#X{.-X<X<X-X-X-X<X<X3X&X!.{.` ",
":XmXmXjXdXsX:XR.T.[.sX,Xb.C.uX5X'.A.m.d.d.y.t.t.8.t.m.+XjXnXQ.( R W T R ~ ~ R E q 5 ' U.%X X].-X3X%X X&X2X<X-X-X-X-X<X3X&X^.Q.` ",
"gXdXfXdXdXmXdX=XR.E..XP.[.9.uXF.D.m.m.d.y.7.9.t.i.i.6.b.mXmX2X' R W R T ~ ~ W / e 3 ` T.%X{.{.1X3X X.X<X<X<X>X-X%X-X2X3X&XI.Q.#.",
"gXsXsXdXdXsXgX:X*Xb.R.XX[.>.Z.F.B.m.d.i.y.9.t.7.t.w.C w.;XmXVX*.W W E T ~ Q W / q 5 %.W.$X}.$X1X2X X.X<X2X<X-X$X>X%X<X3XQ.v.!.#.",
"fXsXdXmXmXfXmXmXaXOX+X=X+X} t.B.C.C.C.u.u.i.9.t.u.i.] o.].lXVX~.Q T / T Q ^ T / t 5 R.R.$X}.%X2X<X X X>X2X<X>X-X%X-X<X2Xz.z.W.#.",
"fXdXjXmXdXsXmXgXdXkXgX+X`.w...i.d.C.C.V.C.a.b.V.b.b.w.o.R.zXVX3X' R / R Q ~ W r q t {.R.].].>XlX2X X X>X2X2X>X-X%X-X2X&Xz.z.Q.v.",
"dXdXdXdXdXsXaXmXkXaXXX[.Y.c...,.t.C.d.C.t.{ Y.b././.a.,.b..XVXCX=./ / R Q ~ W r t M *XE.W.$X>XlX,X X X-XjX2X>X-X-X<X2X!.z.z.#X!.",
"dXsXdXdXmXmXgXmXgX=X[.`.T.p.p...6.i.a.@.9 %.[.Y.V.Y.Y.3.@. XzXCXI.E / E W Q E w t ' ].R. XOX<XlX2X XOX>XlX2X<X-X&X&X3X!.z.c.!.%X",
"MXfXmXMXMXmXMX:X:XOX`.Y.b.p.w.p.6.w.{ M $.`.[.`.V.Y.b.9.w.c.*XnX&XE w E Q Q E w q X.T.}. X>X1X3X,X X%X<XlX1X-X%X&X<X2X^.$.z. X2X",
"gXgXMXfXdX:X:X+X:XXX_.c.p.r.$.+.%.w.r.I.b.[.`.[.V.Y.Y.t.b.$. XzXnXQ y E W W E t 6 $.v.W..X>X1XmX<X X%X<X2X<X>X%X-X<X3Xv.z.^.#X3X",
"gXmXdX=XXX[.mXXX[.OXY.c.&.%.@.+.+.$.%.R.V.[.XX[.[.V.Y.t.}.R.r.>XVX` / y E ! u t 6 v.E. X*X,X1XmX<XOX*X,X2X,X-X*X-X<X3Xz.$.c.#XlX"
};
