/* XPM */
static char *result[] = {
/* columns rows colors chars-per-pixel */
"64 64 185 2 ",
"   c #1B0E09",
".  c #1D110A",
"X  c #24130B",
"o  c #2C160C",
"O  c #2D190E",
"+  c #33170B",
"@  c #341A0E",
"#  c #3C1C0D",
"$  c #2E1A11",
"%  c #341C11",
"&  c #3B1E11",
"*  c #352013",
"=  c #3E2214",
"-  c #3B2518",
";  c #421E0D",
":  c #481F0C",
">  c #421F10",
",  c #45200E",
"<  c #4B210E",
"1  c #54240E",
"2  c #5A240D",
"3  c #442313",
"4  c #4B2412",
"5  c #472816",
"6  c #4D2916",
"7  c #41251A",
"8  c #4B2518",
"9  c #452919",
"0  c #4C2C1A",
"q  c #532613",
"w  c #592712",
"e  c #542A15",
"r  c #5C2B15",
"t  c #542D19",
"y  c #5B2E19",
"u  c #4E301F",
"i  c #55311C",
"p  c #5C321C",
"a  c #60290F",
"s  c #64270E",
"d  c #632D15",
"f  c #6B2E13",
"g  c #642F19",
"h  c #643116",
"j  c #6C3216",
"k  c #64341B",
"l  c #6B341B",
"z  c #65391E",
"x  c #6C3A1E",
"c  c #713316",
"v  c #7B3716",
"b  c #7C3A16",
"n  c #72361A",
"m  c #793718",
"M  c #743A1C",
"N  c #7B3C1D",
"B  c #472E21",
"V  c #492E21",
"C  c #502F20",
"Z  c #4D3222",
"A  c #543322",
"S  c #5D3521",
"D  c #5C3924",
"F  c #5C3B2A",
"G  c #633521",
"H  c #653B22",
"J  c #6C3C22",
"K  c #693E28",
"L  c #733D22",
"P  c #7B3E22",
"I  c #71401F",
"U  c #7D411F",
"Y  c #6D4125",
"T  c #64412D",
"R  c #6D432A",
"E  c #744224",
"W  c #7C4425",
"Q  c #754825",
"!  c #7D4925",
"~  c #744529",
"^  c #7B4629",
"/  c #76492D",
"(  c #7D4A2B",
")  c #6F4931",
"_  c #784D33",
"`  c #7C5133",
"'  c #823E1C",
"]  c #883F19",
"[  c #823F20",
"{  c #83411E",
"}  c #8D441E",
"|  c #8C481F",
" . c #96471C",
".. c #95491F",
"X. c #984A1F",
"o. c #834523",
"O. c #8B4621",
"+. c #844A25",
"@. c #8C4B24",
"#. c #844C2B",
"$. c #8B4D2A",
"%. c #844629",
"&. c #914722",
"*. c #924C24",
"=. c #9B4D22",
"-. c #904F2A",
";. c #8E5327",
":. c #85512C",
">. c #8C532C",
",. c #8E592D",
"<. c #945126",
"1. c #9B5226",
"2. c #93542C",
"3. c #9A562B",
"4. c #94592E",
"5. c #9C5B2D",
"6. c #804E30",
"7. c #855433",
"8. c #8B5532",
"9. c #875A36",
"0. c #8D5A34",
"q. c #8B5C39",
"w. c #925631",
"e. c #945B33",
"r. c #9B5D33",
"t. c #945D38",
"y. c #995F39",
"u. c #A25727",
"i. c #A25827",
"p. c #A35728",
"a. c #A35D2D",
"s. c #AA5F2C",
"d. c #AC5E26",
"f. c #A05D31",
"g. c #9F602F",
"h. c #966136",
"j. c #9D6234",
"k. c #946139",
"l. c #9D643A",
"z. c #A4612E",
"x. c #AB642D",
"c. c #AE682D",
"v. c #B2652B",
"b. c #B46A2D",
"n. c #B86C2C",
"m. c #BB732F",
"M. c #A46433",
"N. c #A96632",
"B. c #A66936",
"V. c #AC6B35",
"C. c #A26639",
"Z. c #A56A3B",
"A. c #AB6D3A",
"S. c #B16D32",
"D. c #B16F38",
"F. c #AE7137",
"G. c #A6723D",
"H. c #AD723C",
"J. c #AD793F",
"K. c #B47235",
"L. c #B97433",
"P. c #BD7A36",
"I. c #B3743A",
"U. c #B8763A",
"Y. c #B6793E",
"T. c #BB7C3C",
"R. c #C17D34",
"E. c #A66E41",
"W. c #AE7441",
"Q. c #B27541",
"!. c #B57B42",
"~. c #BA7E42",
"^. c #B97F48",
"/. c #BE813E",
"(. c #C1813A",
"). c #BE8243",
"_. c #BE8847",
"`. c #BF864A",
"'. c #C28543",
"]. c #C48B45",
"[. c #C98F42",
"{. c #C18748",
"}. c #C38C4B",
"|. c #C3904E",
" X c #C69251",
/* pixels */
"q < < o ; ; @ o : 1 2 4 , , & @ # ; + # e 6 < a a h , e : @ @ q w : # < ; ; # h r 1 @ < , ; X : 1 2 : ; : # & 4 3 : 1 < 1 + ; + ",
"w q 1 + : # ; + : 1 1 3 4 4 , # : : # , p e 6 s f c 3 w q # & a w w : 4 , 3 & j j 2 # < , ; X : 2 1 < : 4 # : 8 3 1 2 2 2 + ; ; ",
"r a r + : ; : + 1 s 2 < q 6 4 # < : # 5 p e w j f b 4 w q 4 3 d f d 4 q < < 3 M j d ; 4 < < o < d 2 : 4 8 ; 4 e 3 1 2 2 s + ; # ",
"j j j # 4 : 4 @ 1 f d 4 q e q ; < < ; 6 r p w j U { e r w q q j f d q q 6 < < M M N 3 q < w o < f r : 4 q : e e 3 1 w s s # ; # ",
"I m c , 6 < q # w j w 8 q r e ; < 1 , 4 r t r v } ] r h r h e n c j w r 1 4 6 N o.N 6 w q r o q f w : q q : 4 4 > 1 s f d > ; ; ",
"I c c , q q q # r f d q r r r , 1 2 , 5 h t d ] { ] p j k l d b m m r d q 4 q | o.m q d q d o w f r 4 w q 8 4 8 > 2 f f f > : : ",
"m c c , w q w , d j j e r e r e j m r y J k h }  .| h c n M g N N N d d r , t ..O.P q d d g @ r j k 8 w 8 4 q r > w f c f > q q ",
"U U U < r h r 3 g n L r l t h r j ] h p L k l &.X.<.p b P N g N | ' l h w 4 w <.-.[ e g d g @ r n j q d 4 q y g q g c m n > q q ",
"' U o.> d j d 8 l l P g l y g l N ' h p W L x =.p.-.y [ o.o.l @.*.@.j f d w y =.<.+.r d n l > g f J q d e e y g e d m b k ; w r ",
"N o.O.8 r j g q l l P k l k J l { N j p W W M <.a.$.k [ O.o.M =.1.=.J l r d g -.3.$.r k n l # g l P q g y r t g e d N N l 3 r d ",
"N @.*.e g c g r P N &.n P P P l } | P S +.%.W 1.x.%.J *.*.@.M 3.p.3.n l g g k <.4.<.p l m n > n P [ y P L l y L g l ' O.h 8 f f ",
"| @.-.q g l k y P O.<.P -.2.@.k k o.o.H -.#.o.a.x.$.G =.*.-.P 5.a.u.L n j j k 5.5.2.y f n L > P [ &.l [ O.n y L G n O.O.k 8 c l ",
";.<.3.4 g n M l @.*.1.W 3.a.<.t & l @.H #.E #.s.x.3.L 3.3.-.o.x.a.a.M { c l x a.z.4.y g L N 8 O.&.-.l &.<.o.y l p N | | M q n n ",
"@.;.5.e n P N l +.<.5.+.f.a.2.t 8 J #.J #.P +.s.x.x.L 1.3.<.%.f.z.z.U *.n L E 5.g.g.g n [ ' e o.*.1.L <.<.o.p J y N  .O.W q n n ",
"@.+.;.k [ O.' L 2.f.x.2.M.A.5.G +.a.r.~ %.L P f.x.a.J 5.3.3.o.M.z.z.I 1.P P P r.;.3.J [ &.O.y $.5.a.O.3.a.o.k J t l }  .W e n n ",
"o.*.$.l [ O.o.L 2.M.N.,.5.5.3.E $.5.B.#.#.~ W N.x.M.W M.r.5.E 2.z.z.+.<.o.o.L 3.5.,.P o.$.@.y $.5.a.#.-.2.o.L L y J *.O.{ g P N ",
"o.3.@.M W @.2.P 5.M.N.>.M.3.5.x W j.M.( :.E %.x.N.N.$.z.z.5.! -.B.F.h.a.o.*.+.5.r.w.^ %.&.f.G -.z.5.+.5.*.o.L L g P &.&.@.x o.' ",
"1.x.z.x M O.2.o.5.N.V.;.M.5.r.H ! M.A.( ( W %.N.S.a.>.N.a.3.^ 3.z.x.$.@.%.@.#.M.S.M.P P &.f.l -.a.z.+.2.-.#.L L p P =.=.O.M O.N ",
"5.N.N.z L O.-.o.3.V.F.3.f.3.w.%.3.I.A.^ ( ^ E 2.N.r.#.r.5.3.^ r.z.z.2.$.@.o.:.V.K.V.P L -.2.J &.x.N.@.3.%.%.L J y J [ *.o.k [ P ",
"x.x.N.z J O.-.o.3.V.I.5.r.8.2.,.M.Y.J.~ ( ^ H -.3.2.#.f.r.z.>.M.c.N.M.a.x.3.;.K.K.B.P K &.3.L $.M.V.<.2.%.^ L J y p [ ] P J [ M ",
"N.a.M.G J %.-.%.w.N.U.j.r.7.w.w.M.Y.W./ R K K 5.2.r.#.M.S.S.>.M.M.r.5.N.c.V.;.I.V.M.~ J @.2.P $.z.V.2.2.( W K G C g [ N o.g @.@.",
"x.3.$.H J [ -.%.3.N.I.a.y.8.w.w.M.Y.l.6.~ K L f.3.e.7.f.U.Y.8.V.M.2.4.K.c.L.4.V.M.,.^ H $.$.P $.z.S.3.e.( W ( G C J O.P o.J *.3.",
"a.3.%.H G %.$.%.5.M.A.3.r.w.w.w.5.V.8.8.) ~ ~ f.3.r.e.V.T.T.h.V.B.3.j.S.S.S.2.A.M.:.~ J %.w.%.-.M.M.$.3.#.( %.H S J &.[ o.W 3.a.",
"5.3.%.G J P w.$.r.M.M.8.e.7.8.8.$.l.8.t./ ~ ^ f.a.j.e.I.T.).h.I.V.r.5.V.V.L.,.C.M.:.~ L [ r.^ 2.z.3.+.>./ ( $.J A P &.&.#.@.1.a.",
"M.5.$.H L ^ w.$.f.5.r.-.8._ 8.6.6.l.9.w.8.~ ( p.f.f.y.Y.T./.h.F.S.M.j.b.L.L.,.A.M.2.~ ^ ^ r.P 3.3.2.$.%.~ ( $.^ S P &.&.-.2.a.s.",
"M.5.2.J P ^ w.$.r.r.q.$.8._ 8.6.t.W.t.w.w.7.7.a.N.M.r.I.Y.).j.Y.D.Z.f.L.F.L.2.H.B.e.~ %./ r.^ 3.w.7.%.#.~ ( $.%.J %.&.=.-.%.a.s.",
"M.5.j.J %.^ w.$.f.f.t.w.t.8.q.6.8.E.q.w.r.8.8.N.S.C.j.I.T.Y.j.Y.D.M.M.L.L.I.8.H.V.j./ %.%.r.^ r.r.$.$.8./ 6.$.$.L $.1.a.-.-.f.s.",
"M.f.5.H %.#.w.$.r.r.t.r.f.y.t.6.8.A.9.,.r.2.8.z.U.A.C.Y._.).j.Y.M.C.B.3.x.x.>.H.A.r.~ 2.#.l.^ 3.r.w.w.r.w.8.$.$.^ >.3.v.3.-.N.S.",
"5.3.w.S $.-.e.2.r.y.f.y.A.Z.y.$.e.W.k.t.M.e.t.D.Y.Y.A.'.]./.j.F.B.B.z.M.c.c.>.A.C.e.K 2.w.f.%.w.y.e.w.M.j.t.$.2.%.r.f.v.f.4.K.L.",
"z.w.>.9 %.-.f.w.r.f.C.M.Z.Z.E.8.r.Q.k.e.B.M.l.~.~.~.H.{.].).h.I.V.A.M.c.F.V.:.F.C.t.C $.e.A.$.5.r.y.r.M.y.r.2.3.$.r.S.A.V.a.U.L.",
"5.2.w.7 A -.f.5.C.D.Z.C.A.f.E.8.j.Q.q.r.N.C.C.~.~.).H.].(._.h.A.A.V.V.K.n.K.:.V.f.t.C %.w.f.w.C.A.C.r.B.l.e.3.5.w.j.A.A.S.z.U.K.",
"5.r.e.0 t G -.r.C.E.E.C.C.E.y.8.A.A.9.M.I.C.Z.{.`.[.Y.).].].h.I.V.A.B.v.L.V.:.V.A.y.A L w.5.5.Z.A.C.j.M.r.e.r.M.3.A.I.I.P.N.L.K.",
"N.r.t.> G [ -.$.y.f.I.C.C.l.l.7.A.A.9.j.I.M.l.~.{.[.~.'.`.`.$.D.A.V.B.v.m.L.:.L.G.h.0 G $.-.-.y.C.E.f.C.y.y.r.N.2.j.I.Q.R.S.D.D.",
"v.C.C.8 G <.w.#.w.y.y.j.Z.l.l.7.Z.H.k.l.I.C.7.E.8.H.~.'.{.}.8.f.I.V.M.n.L.L.;.L.!.l.A S f.r.$.t.f.y.f.C.r.t.r.N.,.t.y.8.A.D.U.I.",
"v.M.C.C K -.r.#.t.q.6.r.B.C.l._ C.A.k.C.I.C._ E.q.Z.~.{.{.}.r.r.I.V.M.n.m.K.>.P.H.A.H K r.C.^ y.Z.C.r.B.r.l.r.B.2.#.e.^ A.I.U.I.",
"S.V.A.C K ^ $.( f.E.A.M.C.t.l.) t.l.9.M.Y.C.9.E.!.].!.}.}. XC.3.V.V.5.b.m.L.;./.~.G.T / 6.f.^ y.!.Q.r.A.t.l.M.S.e.7.Z.C.U.S.T.U.",
"x.B.S.S ~ %.8.$.f.Q.~.f.C.9.t.~ ( r.q.A.I.Z.q.W.~.'.Q.}.}. XC.f.g.B.1.m.b.L.;./.!.G.R :.7.r.$.C.!.Q.j.Z.7.j.B.D.r.t.A.I.K.F.T.U.",
"v.V.I.S ~ ( w.2.E.Q.~.j.C.r.l./ ( A.,.M.A.j.l.~.!.).C.R.^. XC.N.5.5.i.R.n.m.,./.).G.Q 7.8.C.>.C.~.!.h.B.e.l.M.M.8.y.Q.A.V.M.K.L.",
"x.I.I.H ~ ( e.3.M.Y.T.j.A.l.l._ R Z.:.C.Z.j.l.^.~.!.r.'.R.|.N.C.<.;.5./.b.m.,./._.).#.8.8.A.>.M.~.~.h.A.l.l.M.M.4.C.Q.I.B.2.K.N.",
"<.j.B.W Y ( r.2.j.C.Z.r.G.Z.E._ 7.8.Q j.B.l.l.!.W.!.t.'.v.^.Z.r.>.>.4./.b./.;.B.!.E.>.7.7.W.:.M.Z.Z.j.H.C.E.f.j.e.l.G.Z.Z.,.V.p.",
"i.a.a.%.Y ( r.<.N.K.V.w.A.C.E.l.q.9.) 8.e.e.r.U.Y./.8.A.V.~.Z.U.Y.M.3.T.b.P.g.m.I.V.h.>.0.H.@.V.Y.V.e.A.C.l.3.e.>.r.K.F.K.` 4.1.",
"X.1.1.+.#.$.5.@.N.A.M.>.G.l.Z.h.7.8.T e.w.e.3.K.I.T.Q r.S.!.t.E.H.h.5.m.c.b.g.v.V.j.h.j.e.V.%.V.H.h.,.G.Z.C.7.7.#.3.V.j.V.G <.5.",
"1.O.1.J %.$.2.| s.V.j.:.A.A.A.q.9.` F e.>.e.>.V.A.T.%.P V.W.w.C.W.j.g.c.x.c.g.v.x.j.( e.e.V.E x.A.j.8.F.Z.Z.$.#.:.#.M.j.V.g M 3.",
"=.| *.H Y ! <.W a.M.r.:.A.M.C.t.` _ A k.8.e.r.V.l./.~ P w.D.w.C.G.j.g.c.c.c.5.v.z.j.` :.,.V.E z.Z.r.>.V.j.C.,.#.:.$.z.,.F.y G +.",
"X.@.<.S J %.;.W 3.M.r.%.M.j.B.h.` T Z e.8.C.5.S.,._.( #.%.( #.C.A.r.r.5.c.x.1.v.N.j.( ` 4.B.L M.Z.e.#.j.j.j.8.#.>.;.g.( V.p l H ",
" .O.*.k ! ;.;.W 2.r.e.^ 4.j.j.e.) F B w.w.M.r.I.0.].! 3.-.t.$.l.A.0.>.@.p.2.| d.x.j.( 8.j.C.Y j.l.t.#.e.e.e.>.>.,.;.h./ G.k P L ",
"X.O.*.i W $.#.P 3.e.e.^ >.w.r.>.R F Z 2.4.M.3.A.:.'.$.f.r.C.w.M.Z.t.( <.i.%.@.x.V.5.~ 8.j.e.Y 5.h.e.! ,.8.,.+.:.>.#.,.Q j.l o.P ",
" .| } 0 L $.( J +.$.7.W $.#.;.#.T F B 3.5.j.4.V.8.T.+.N.f.y.8.r.C.8.E 5.x.:.@.x.x.4.H ( g.0.Y 4.8.7.^ ,.( >.>.;.>.+.,.Q j.x @.%.",
"' N o.5 x o.! H +.%.( ! @.~ %.~ K A Z >.5.e.4.B.( Y.:.x.z.4.>.j.j.:.! 3.z.>.| u.5.;.D ^ ,.,.p ,.#.( ( >.~ ^ #.+.+.+.:.H h.I | | ",
"v n N 3 x W W x +.W ~ +.$.^ ! E R A A %.2.4.<.B.:.F.+.x.z.e.#.e.e.:.W 5.5.;.U 1.;.+.p ! ,.h.p ;.( / #.>.Q ~ W ! ! #.,.Y ,.x ;.U ",
"m j j 8 z E L k +.E ~ +.3.$.+.J P D A ! ;.2.;.M.Q B.W z.z.g.^ >.>.#.Q 5.3.E U <.#.E p ! ( :.i :./ Q :.,.:.E I #.! U ,.D ! I +.| ",
"m k l e t k k p ! L ! %.4.$.! H K D i E +.>.;.M.E j.I g.z.e.~ %.#./ ! 1.<.E N @.! I z Y R Q i :.^ Q +.4.:.E I E E ! ! p ! h ;.+.",
"j d d 3 e t t p o.E ~ E $.+.o.p A Z i x U #.;.g.E e.l <.5.>.J ^ ^ E E ;.;.x x o.M z k z H Y 9 :.( Q Q :.#.E l M I ! :.p Q r U | ",
"d w p = 6 6 0 p ! W Y x ! E W p p V Z p I W :.4.Y ,.p o.;.! k E E K H $.+.z j N z z 0 p H D 5 ! Q R x ! Q I p z Q Q ! i Q 6 I I ",
"h 6 r # 4 6 0 t I E H k x E E p x u 0 t z I +.,.H >.y N ;.~ k J Y H k U U p r M p p 0 t i D 5 Q R H z E E z i k I I Q u I 4 j I ",
"f q p @ 5 0 t 0 I M z k x x I p H u u 6 k I U ;.z ,.y M { Y p z H p p l I p e M p p 5 0 i p - I E D z H x H 5 i I I I 0 Q 6 h x ",
"h e e * 3 5 e 6 x x k k x H L p z 0 9 5 k z I U i :.p j U x t z p i e k l t q x p i 5 5 i z = I I D i I I z 5 e p z I = I 6 h z ",
"q q e % = 6 i 6 z p i p x k I h z 0 9 0 t k z I i ! h k M p 5 t t 0 5 p p 6 & h t 0 = 5 i p * I p i i I p p 5 e p p p 5 z 6 r h ",
"@ # 4 % = 6 t 5 h p i p k p x p z t - = w p h x i I p j p 5 3 t 5 % 5 r e 4 , 3 , 5 5 - 5 p * i i i i z p i = 6 i y p 5 p e e 6 ",
"< & # $ = 6 e , r t t t p p x p p t - & 6 0 r z 0 Y t h t 7 = 6 7 % = e 6 = ; 6 = * = = 5 p * i i 0 i i i i = , 6 w i 3 p 1 e 5 ",
"q & # O = 6 e = e 6 6 t t p x y 6 5 - & 4 3 e p 4 z 4 t e = & 3 = O @ 6 q = , 4 , * $ = 6 i O 6 0 5 0 i i 6 # = , 4 e = i < 6 3 ",
"q # 3 O 3 e 6 O 3 t 5 6 t t z 6 - = 9 @ 4 6 , e 3 p 6 q 4 * @ = * O @ , 4 @ & 4 , = + = 6 6 . = 0 = 5 0 i 5 * = = = 6 = 5 5 6 , ",
"q # e X & 3 3 X $ 5 = 3 i y p = * * $ O 3 5 3 e 3 i q 4 6 @ O * @ o O , & O @ < = = O * = 5 . * 5 = = 6 i 5 + = , , 6 = 6 6 < 3 ",
"< @ 4 . , 3 5 O @ @ * 5 r e t O * % X O , = # 6 , i 4 3 3 O o $ O o O & & X O , @ = . # , 5 . * $ $ = i 6 = O = = = , = 6 4 = , "
};
