/* XPM */
static char *result[] = {
/* columns rows colors chars-per-pixel */
"64 64 70 1 ",
"  c gray80",
". c #C6C6C6",
"X c #D0D0D0",
"o c gray82",
"O c #CECECE",
"+ c #CDCDCD",
"@ c gray81",
"# c #D2D2D2",
"$ c gray83",
"% c gray77",
"& c gray75",
"* c gray84",
"= c #CACACA",
"- c gray79",
"; c gray78",
": c #CBCBCB",
"> c #C3C3C3",
", c gray65",
"< c #A0A0A0",
"1 c gray74",
"2 c #A4A4A4",
"3 c #D7D7D7",
"4 c LightGray",
"5 c #C8C8C8",
"6 c gray",
"7 c #C1C1C1",
"8 c #D5D5D5",
"9 c #C5C5C5",
"0 c #B9B9B9",
"q c #B6B6B6",
"w c gray66",
"e c gray68",
"r c gray69",
"t c #B7B7B7",
"y c #C0C0C0",
"u c #B1B1B1",
"i c #BCBCBC",
"p c gray76",
"a c gray72",
"s c #BBBBBB",
"d c gray85",
"f c gray73",
"g c #ACACAC",
"h c gray57",
"j c #9B9B9B",
"k c gray64",
"l c #AAAAAA",
"z c gray67",
"x c gray70",
"c c #A7A7A7",
"v c #AEAEAE",
"b c gray54",
"n c gray55",
"m c #D8D8D8",
"M c gray59",
"N c #A2A2A2",
"B c gray61",
"V c gray50",
"C c gray63",
"Z c gray71",
"A c #AFAFAF",
"S c #959595",
"D c #B2B2B2",
"F c #9A9A9A",
"G c #818181",
"H c #B4B4B4",
"J c gray60",
"K c #A9A9A9",
"L c #DADADA",
"P c #A5A5A5",
/* pixels */
" .XoOo+@#$$%o&$#*+=*@%-+;;-o:.>@XX,<>1*2;3#4oX4oo5.+5 &X;#O>=6&:",
"47Xo+XooOOO=  @8#o+> XX4>%-&5-9O0$0>& 3+@8@o*49OX4 @- =8X->q71 5",
"4@X##oXO.O4O+w$$O@:X@@o;.%: =9X-&@erw44%&*@o4XOO .#@90XXX97;.-@@",
"X=X4+#@X:Oo5$;@O+@4XOOt:=@5y;+4+-+;ui@oo17@X@4O54 pi-t= @:&%a:.&",
"O:O+ @  +#:O=OX=Os  .o.;=. - +@..d-=:-+.7f@XOOO-@4>95f= :=%.f+y;",
":=5;++: + 5=; +5:X-=--:::+>+$&+>>8yy:5;X>=o5$$X#@ ;.y9=+-5+;@+-q",
"++=+@@4@o@@   -5-*O@4oO@op955 &%:1ghp=5;1X:o:#o @:5q+7O@59>9; 7q",
"O ;@o@4+f;XOo@==OoXO+Oo@@>+:.: O .pj6O 5;-:@OX@@@OO7X5+>+;-y9.O9",
"45OXo#+ pt71.% :X4+4OXOO+=:-.>g%:4okl:,zx-;o+= O+:OOX-&X O6:-.oo",
"#:o ::Ou@c @y94#48oX=-@+ :yo-=yy9;6v2&ux+bn84.@*$m$8%:-9o+@X4#@O",
"$4X5= 55X:+3@+4 +#X= 95##X++O::->&% eMNBuVCo =ff.X=:;>O+%.9-+ X ",
"XX 5-::%7=@oXX@&= ====9;  %- 9;>9994.qs&Z2f==;9-5oO=95OO+ .>O=5+",
"=: :...-6-@4@;5;-O%5==:%.O--5==5pp6y;5A:zS9@#+O@O-6O@;=y#$f-=%.o",
"@ 5.9;=;9:;=5O5p--:p+7:+ O#OO@@=5: D,>>sFGt-$# @O ;5.= +;#5 X;:X",
"XO%5:o++:5O.=..7=O @+ 9+oooOO@:;9ss*-5=$pN::@4o   &9::$4.@y#@;XO",
": +  @-=%p;;=+-5;y5+ @5+==+.5=%p&X>@aFw;;#.@+-9==Xy=+ :;=75OO::@",
"  .- ;;;9&iy9tX0 %p>.O9: -+55:951%=$0Ah-7 ++o;: @ --O:;-;:X +oO-",
";@:-H%=;>9%-qxo9: 5+-+:5:&++  ;>=:-&ja77r#4##XX@-9#:o#-- ;o OXOX",
"5X# C&J@=.p>=&%=7>@o +OO+p5#8@+5=&+i>%=-a44+X=O+;084#O:-7i:#O+X@",
"o.ooOs7@#Oyp6%%t0--+= X-8@-5 $ + :9:oXq%uOp@@@4#:1$3#*=@ X++5#33",
"O1+5+@7%5o499>965Z%- O X@o:7o4O ++OOOX X6  ;5O#61>@o#$ o -%8+= *",
"&y5;;-+.5O@::fy7s...5=.=;-:5O O;-: -+@9:=5=-+ .=@:  Xo@+XO--9y&+",
"f@y->.aq+:vi5p>;1pp.9.+- =.5=%--:;9955%+;@.5:5.=+-9@#O-:;i +O+ +",
"0--.+o.;++akO--i6i7979 = :;%5%>:;;9.:75@5:p5==O::.@:==> +. +O:=X",
"a e6:>y6 O$u=%O.;;5= =:  O= +=9:.=5-5.@#:; .9X;.o+5+p5 9i6OX-=@@",
"pOO++@55+. 51f9=;yioX55=@+ O==OX .p%5->i&-+.-:%+XO@8@OO==K-+@4@4",
"-7=O+>=o9@5O46:- p;5:y.:+:: OOoX:.== -+=+>X9@=:4888$o$#+-D.%XX4o",
"8.+ +$sZ955+:v+O-9:7:>75;-=.%=9-.-+=-X4--p7o9+=o:8###4#$oO+O$++O",
"%:#=-OO5O-5O:%p=0&=py&it&9p>.9-..+  :O> X>:;9;&5%4o84X +o4.  +7=",
"1=. +==;-==:=;:1%>>%9f1y7>..5p95&. :: --i..p+=>=o@o+o#XXXO @@=O ",
"79==; 9%>5=; =-;6p>9>i;.-;955%++=  @@@  -O-y+-1;+ooo$8=@@o@X@+:O",
"5;5=;7ys661p; .O>>..>H=%9;:&7-=O o@@O pOO+X -9;;.4#8$X# 4*- @oOo",
">%9.p9H1.;p=::>;yp;.559;;pp-5 OO7O@OO*@$X4O@X=#Xo=+$X9#&>X4O#8@O",
"9>>977f.%->%::7py7>.55.+X;>.999:75 @@-7X:=$oOo4#oX@4X-8+9*##@@ X",
"%.&-5:&%5@-.9=::-9=.>9=X@O+@4%y>%=@$o4oO*oo4o4$$* #O#Xo@>X=4%o *",
".9f;:9%.;;5=::@:@=+5-; p@@OO-=%..=#4@O+$o#-8oO+;$88#@-4#o*:@5=0@",
"77%-.yy6&>;=XO+.p9;p..==::X=;p%p-:+@+oOooo@#84+-$*8433#88$ #Oy@ ",
"6&9ipia6755:=:.%7.-%9; =.5 :-5.=+@O Oooo#$84$4#o$*oo8#.oXo4@o=+#",
"yp.&i7y9%-:;9-9.-&:;5 5O5 :OO8:@@4#@XO4#@m*4:X#o488mm*4X@X8@4 @#",
"5@%>&>65:@+O=;%51=5=5O1 K6@=oX4oo#;58*$8O$#XOX$$#@OX8$81o*$8%+@#",
"%-5%%sp :O+=5;pyp>yp%9pd;p--@@44#*=o*8#O*#o+OOOOX:O 4*o# @99+5#X",
"9;.y..:;.=:5-;>&>p9;5-+--&;-X #4448$4#OOo38@XOo @4O@8*#: -;O*=@5",
".-5i5 5-5-5++@5.6;+@ 5=+@ O.#O$83m3$$#X$m3o#o#@XX4$o$8**o@4$o+4o",
"++=>oX=++-:##4$@X@XX5>++O:++X4*$mm*4d8$Lm*oOO8 $X@+84488L38y4X@o",
"  O@XOO+= =o$8oO:$4X 9=5@8XX;X4$44#48#$d3*#  X#$8@@O##$3dd84oo=5",
"-p- - :oO p+##@OO+@:Op ;-OoO@X484$*3$48o4m*$4X544X+X#X+o$$4445-7",
"=;-:O+oO: : 4o-Ooo@+@O:7s@o=5#$3#*3m@@3*88m84$$84oXXo :oo**#$+O-",
"7 O-=+#$XXO+#4:.-O:-:+X 5o#p+#8$88dmoO88483348$$oXOO@@oXo#$84 p+",
"9O+:: O$o#@Xo#X+-+;Xo$#o@-O5@$*m$*3*#O84#o4m8$$$XX$oXXO#4oo4o+:o",
"a>p::  :5=+O@X++:;+@oX#oX:- :##8#48$  o#o@o$3X4#Oo8#84#$oX$#:X#o",
"5=..>p= 97pp5%@X#.p&:o4X@@@ #4#$$4$4 =oo8=*$$=83$oX3$4*4>o4+.oX$",
"% +-+ +:O=7.-. o*:#X9=$$#X*$88$*8$3m@@X$48*$$0-o$o#$$oo8$$338 8$",
"%+ -@=;>X 9x.= @X++.6p;4oXo$$848844mmX@#o$##*@#@$8$X8##-@.;%:@43",
"y 9%;..y.;597%.%+$ .f:o#o#**8$33$#;o833m$#o$$X@Xy5O5o@O8O--= o0O",
"9.55=.-:566&>-5p>::%.:=O@:X#oX4#o+ 43m4$X=#o44o@5@o=O#oo4oXO=4O+",
"--:5;=.>;16>==y=95O=.:@%oyO##o8**84488##+X$@*84$*o:X4o44@#75@$O#",
":.+:+X@XX;5ys,==.:X$4$O ;o X+=o3dmmm8$# :X@#X#3m84O4838***4=p+p9",
"@+O #@$384+Pa;.$O>-0@X;4&a:-8#o*#m**$4 51Oo*8*mL*8$*3*3m3-#&&=.=",
"@@$$4$$4#Xo:=#8d*7;>+ 7#8#$3*448#*8d4@;=O;4$8dd3$m8m33$OoXdy$;#=",
"X:@o+= ;:+-5=+8$*@59>=O6=;H$44+o*$43X D4o+XXoX8$o$43$3+5Oo44.o4#",
"O9 95+O:95..=OXX-:@O.%6uq1> pO X@444484O@-O4#@484@88oOX*8$$$#  @",
"py.p&0Z7%-. fy+O-=fya.&9fs0@y+o4@oo+oopOo=44$4$444$$$oo$84$4 $##",
"y06y7Z=1&p>>fyl9:6a7i6;%>10- +#;9-#%HH1X@8$8$$$OX88$#o@o$*X >*m4",
"=5:.9>0>5>yiqi9p76rt7&09p>=5#X@;7ls:1y7:+@88$88$4$##8>p=$@.8OX**"
};
