/* XPM */
static char *result[] = {
/* columns rows colors chars-per-pixel */
"64 64 86 1 ",
"  c #453E3C",
". c #4A413E",
"X c #4C4542",
"o c #4F4846",
"O c #524744",
"+ c #524947",
"@ c #544C4A",
"# c #594F4B",
"$ c #56504E",
"% c #5B524E",
"& c #5D5552",
"* c #5F5856",
"= c #5E5958",
"- c #61534F",
"; c #6C584E",
": c #625653",
"> c #635A56",
", c #695A56",
"< c #655C59",
"1 c #6A5E5A",
"2 c #735F59",
"3 c #6C625E",
"4 c #73625D",
"5 c #78655E",
"6 c #70685E",
"7 c #6E6562",
"8 c #6F6863",
"9 c #726663",
"0 c #796762",
"q c #746A65",
"w c #7B6A65",
"e c #766C69",
"r c #7A6E6B",
"t c #777066",
"y c #77706B",
"u c #7C726D",
"i c #7E7471",
"p c #7F7873",
"a c #836D67",
"s c #806E6A",
"d c #82726D",
"f c #8A776D",
"g c #80786F",
"h c #827673",
"j c #887773",
"k c #847975",
"l c #897A75",
"z c #867C79",
"x c #8A7E7B",
"c c #8C817E",
"v c #91837E",
"b c #868081",
"n c #8E8481",
"m c #8F8886",
"M c #928683",
"N c #948985",
"B c #998B86",
"V c #958C89",
"C c #9A8E8B",
"Z c #9C918E",
"A c #9D9492",
"S c #9F9897",
"D c #9F9898",
"F c #A1928F",
"G c #A19693",
"H c #A39996",
"J c #A89B95",
"K c #A59C9A",
"L c #A89E9C",
"P c #A7A19E",
"I c #AAA19E",
"U c #A69DA0",
"Y c #A99FA0",
"T c #ACA4A2",
"R c #AFA8A6",
"E c #AFAAA9",
"W c #B0A7A4",
"Q c #B1A9A6",
"! c #B3ADAB",
"~ c #B6B0AE",
"^ c #B8B1AF",
"/ c #B6B2B0",
"( c #BAB5B3",
") c #BCB9B6",
"_ c #BDB9B8",
"` c #C0BDBB",
/* pixels */
"BCAl0;;ajMjjjjxl5aNFCDUUYBjxFCvMZHCCljGG^`^`QJZcuvvvvVAGvccvHIJv",
"TLYAerhCFBBFGlMjssjjlxxCFvsjMCBvHJNKMlCL!^!Q!JvfvZvcvvBZvcvZJvvF",
"KLTHzdrCGVBLWxvBNMFGGFCGFMjxFLCCLTGHclJJ!^IW^WcgvABNvVPPZvvJQJvv",
"NCYKMe2jGZMBJvxBCCCGGCVFFMMMCFFFIIGGclFJ!QQWQJvfvPPBccVCvccHQIvJ",
"VZGDMkrcFFZCYFFBACCFKFCKCMFMsjCL!!JBfhGJ!WIW!JFcNPIZvcvvcccZJvvJ",
"KYUDAmjVGFJLWJLGCMVCGCFGFMVMvMFL!!GxdhZJIIJIIIFccPIIHCBBvgcvccgc",
"YTUKAzxCGFZYEEECCBFGKFUYGVMBFGUYLTCcwgMGPIKJJJMkcAPIHvvNcugccgtt",
"YYUKCrMCnMjvLWWZVZCFYUY!WBxVFUYELSNvr0lBKIKKZcu46fcvcutdt55a5666",
"GUGUCjbMMBsxAYYGMCCCYYEWYMsnFGLEIAccw9wlMCFFlxd0wcCAZcccftwhhxaw",
"CGGGCjvvVMsxMGUCcCCFYEWYUc0lNNFYAZdu0walMCBBxCvugNIPPZBSFgtvCGBg",
"VFCCVnbvMxsjMGGMzcMVCGGGGl2asdxNvMl05sxCJKJGZZvdlMPHJACKJluMJIKh",
"jjjjBMshxs0sjxjjhMCCMCGGJFllNxvVCHFhwxNYPKLJZZvwwxCVBZNAHcgVR!Ik",
"jjajbjsjvjjlxj2xjGYYUYE!WHVMAAATWILVhbC^TTIIZZx44hxxcCNBNchCRIPN",
"VVvxsrhVBBFFFv2xzGE/W!((/LMjxxMAAAHSzxV^!RRPclh45fBNNCMckupvKKCZ",
"GFVjrssBFBGFFM,9sAY~~W!_/Hcjj0wiuNZClnn!TIJNgcctllVNCAMcchpNSKBZ",
"UUVxjjsBFGUGFj,9hFYE^//(/GxcxwsrrxMVxNATIJHBMFClVVxzNACmAvuNKKZA",
"UUFFCbbUGYLJBs40dVK!(^^((SzZKMmnVmNSmnIYIIIGAAVjMAnxVSVNAnrxZNNA",
"YUUGGMvULYLGVljflCT!^(((_HnK/EHCTUKTANWUIIGFVVhqinxcMMlxmzrnAVAH",
"UUMCDMvGLTGGCCHNNI!/^^``_PmD_(TVTTLTNnETWIHZCAl0rpzxzkurhuenAVDV",
"UBjMDjMUKTJLLYWCMW(!^!`((HcA/_TA!_(!nb/EIITZKWNhxxNCVMxpu9qbbzNz",
"YClUUMVUKW!WRKRZnT!UYE(_/DmD_/IL/_(!NzTEIIPvCTBhnvmALKHCherVMnbh",
"YYYWUMMAY!TTAeulnR!RLHT(/DVT_~T/(_!TkiZZZvZvMNjrlMALTTKmd09znVMx",
"Y!!WUzzzLWTHx73lxVUKUYYE(KNK!TUTEEPn12,4aaatrw9q9rjVCZVbs09hmGZC",
"AGKUVrxcGHLPNcicxzD!E!!//KzVLHMncNxe,,0whgflduqeeeknmmmpe39bAKMZ",
"AcccjuMGGUYYHAMczhVTE///!Zuinnxlkii93ibxvCvvNcpukznKPTTZcreMCVVV",
"VxbdszMGE!!THHAHnzGIT!!!/AppALCxccxe9pbVZPZHIPZkMKRQRRPBlr0zMnbc",
"xru00rxGEW^TIIAMxVTW~/)(EAikKYAnnAAbrezKIIFHIPvcZR!Q!!TVs7ecVzcc",
"MhdeesvUWY^`~WWKCLT!~TPKAb9exMMncCCmi9kAIIJI~PttZ~(!R!ESh9eMGMxb",
"DbrehrzFLW(((IPPCT~^~!!IHNuekVVAHHHZi>zG!!IQEViyMR!IPTRDzepCGbmV",
"UFiuziMYE^___WGHcP~~!T~~EAhucnmATKTTVeKY~~I!ETmiZ!PVCKKAbizGYAMA",
"YUcjhbMGW(```^WIcSR!~~^(!HkbGKKATTETViWTE(!~//minSZnmVADCxbGLGVH",
"EEHchhbCG!_((^!WzNHW^(^~EGhbYEKZTEEYVrEY!(RR~/SicVnnnmAACxjATLAD",
"UYAMbixCA!/WE/!WcNGT!!/!YAzhUEDCT(~TVeSDE(/~!!SpbVVSCCZVmzkCTPCc",
"rbzhh99rkT^LG!/UxZCLTT!TTAihGYMbTETZpebDATE~PRSpbZSTSSACcuimPCze",
"909rre9elYYGBYEGznMSHKUKUm9eVVhhnCni78zRSP!!PRPpbAAPSCAVciimZcpi",
"9rhrr9ejnCGVvVAvuhkMALGNbr<1cVjrizi3,ySEPTTTPPPbbAVAVccVmpcSCzcn",
"srhre9sxxNZNMMMbebznATKne4--dMxhxNbi7i!/TSAZPPPcmSSAVpkVCxbAVzzm",
"e07r99exhMnzMMhdeZMnGYLMde:-ebbxzkMk9uAHZmVVKTPcCPPAmzhMVxrMmpiz",
"707r99ezhcxkxvideNVnVKGmch,,dMMxkhnr17bACmNNKRAzcSSZmcxcbhecxrey",
"9eer999nCnxnlbbxrnCxnVVVVj<7hVVjzxxr1<zHCVAZZPNqzCNVBMMnbhinh77q",
"ashie7rFYCcmzMxbezVxcVmVMr17bCVlbxkr9>kAxVANcvc8hVzkcnNMnlkbh497",
"jshhs9sUYGMndzej7erecCVMbr19bCCbMnzxe<bNhnnxccc6zMpeicMMMxhhreq9",
"jajzh1hDUFbMhher13r9zMMxhr3exMMzxnVM9<xnhkkxcvp3ikrekzbMnzrire9e",
"jsrh0<9Mxzdxur91><93rzzhr9<<rszhqlMh1:irukkNCCz3qq9upkxnnleiie9e",
"4313,:,r9eere0,==&<=1rhhi9=:77zm9eqq1:77eiznBBc39919erkzbh3ee97e",
"-,-=11,ssr4rdx071<090iznzr73r7iVxger91eeihzcvNc3791<<7uuhe399739",
"31,2r01rrd0erhr7,<hijMVMbhe9hshzMlkck7iiexbnmvc33q9<<9eee99ee3<9",
"99<-<1,090999rs1,7rijbbzii97hirznlzzkeixubncccg6797139eee9er9339",
"97:O.,,4401110e4,7rzrrrhr9<1rhbbkhmmpqyzgzzcccu3993138ye88eq317e",
"<=#OO<149<-,,,1,:=1rbbMbzr37rbMheekziqucgccvNcz9qq313tipuy8ee73q",
"+-:#:1,,2,:1:+###%1errhrie<<971eeeuq88zVcvcvvcy3ipqypckczpucxiqq",
"#==-&:&,<<2j,-##+:79hzzzie<<73=3yzbzy8zNvvcccck3eirhccglkyeVVxee",
"%<<:&-&:3,a01::1-&::7rzzie<3rre9ikpby8pbcggggkl3eiiyikgpi88nmcpi",
"<99,&#$&>,1e,:-2&&:<7ezmmb1=e99ezpuu87zkpgptukh<qkuycclgieemVmce",
"1193###<9>11OO%-+$==ieezmb=$==7ekizzy8ycyypguiy:7etepkhgiyebbcbu",
"-:1%O+#:@#&%X$:>==9ie9eeei<$==7ekkmb83u88ttguet>euurttugt78czkcy",
"O#%&#%+$1>$>$$&&<97<=$<ey8&@788=<epmu=e<386ptet>tcp6ttttt88bcpzp",
"#@#++@+$3<$=@+=&%377<&<18<$=883$*8cVy=p8888u8qq3yit3wpppyy8zzppi",
"-#@$&:@<:9><=&1&$13<&<<=77=$388=77p78*q73*&3>33&333#3ttyy83ypppc",
"%%:%%%@<&e9er<9$@:7$@&7987=o$3y873q<7&<*336peyp383&#&>6tt88pppyz",
"O%:@oXX=@3&<<$=Xo=<&$$====$@=8uy83888$e138886ty*tt3369qty88zpe8k",
"O%:.oXo1$<&<$&&o@<==$$$==o o=88833<3&+q%>683q6p3ti86uttq873pkupk",
"O+-$ooX$$*@@$@@XX$ooo@$==oo$<833***$%o8&6333tey38pt36qq8y73pieuy",
"$O$@o. XX$XXO#%$@$$$o$====@$=6633*&$&$q>6336q6t3tyt6666qy83zhyeq"
};
