/* XPM */
static char *result[] = {
/* columns rows colors chars-per-pixel */
"64 64 194 2 ",
"   c #59361D",
".  c #45422F",
"X  c #494634",
"o  c #4B4936",
"O  c #4D4C3B",
"+  c #454634",
"@  c #524B36",
"#  c #524E3C",
"$  c #584D37",
"%  c #4E503F",
"&  c #54513E",
"*  c #5B523E",
"=  c #66462F",
"-  c #6C4D35",
";  c #714D34",
":  c #765135",
">  c #79553A",
",  c #4F4F40",
"<  c #4D5348",
"1  c #545344",
"2  c #5B5644",
"3  c #5D5846",
"4  c #565649",
"5  c #585749",
"6  c #56594D",
"7  c #5B5A4B",
"8  c #5C5D52",
"9  c #535A51",
"0  c #635945",
"q  c #625D4B",
"w  c #695B47",
"e  c #7D5C43",
"r  c #735F49",
"t  c #615F51",
"y  c #5C6057",
"u  c #5D635B",
"i  c #66604E",
"p  c #7A614A",
"a  c #636255",
"s  c #6C6453",
"d  c #64655B",
"f  c #69665A",
"g  c #6B695C",
"h  c #67695F",
"j  c #7D6A55",
"k  c #736B5C",
"l  c #7B6D5C",
"z  c #736956",
"x  c #7C705F",
"c  c #646A64",
"v  c #6C6D64",
"b  c #6A6E69",
"n  c #656A65",
"m  c #726E62",
"M  c #6E716B",
"N  c #757165",
"B  c #7C7364",
"V  c #73746B",
"C  c #7B766A",
"Z  c #77786F",
"A  c #7D796E",
"S  c #6D7573",
"D  c #747672",
"F  c #767975",
"G  c #7B7B74",
"H  c #757C7B",
"J  c #7B7E7A",
"K  c #876649",
"L  c #816751",
"P  c #816F5D",
"I  c #876C55",
"U  c #84715D",
"Y  c #8B725C",
"T  c #95765C",
"R  c #837564",
"E  c #897764",
"W  c #847866",
"Q  c #8C7964",
"!  c #837669",
"~  c #837A6C",
"^  c #8B7D6C",
"/  c #937E6A",
"(  c #977D66",
")  c #837E73",
"_  c #897F71",
"`  c #817F79",
"'  c #917F70",
"]  c #7E807D",
"[  c #8C806F",
"{  c #94826D",
"}  c #9C8269",
"|  c #858076",
" . c #8C8274",
".. c #84827B",
"X. c #8C857B",
"o. c #8E887E",
"O. c #948574",
"+. c #9A8674",
"@. c #978977",
"#. c #9B8975",
"$. c #91867A",
"%. c #94897C",
"&. c #9B8C7C",
"*. c #9E907F",
"=. c #A18267",
"-. c #A28B75",
";. c #A28D7D",
":. c #A08772",
">. c #A2917D",
",. c #7D8282",
"<. c #838583",
"1. c #898782",
"2. c #868886",
"3. c #8C8A84",
"4. c #828789",
"5. c #858A8B",
"6. c #8C8D8B",
"7. c #938D84",
"8. c #9A8F82",
"9. c #928F89",
"0. c #8E908E",
"q. c #969187",
"w. c #9C9185",
"e. c #94918C",
"r. c #9B948C",
"t. c #9E988E",
"y. c #848D91",
"u. c #8A8E91",
"i. c #8D9193",
"p. c #8E9499",
"a. c #939494",
"s. c #9A9692",
"d. c #979896",
"f. c #9D9995",
"g. c #939699",
"h. c #96999B",
"j. c #9C9C9C",
"k. c #A29484",
"l. c #A1968B",
"z. c #A4998C",
"x. c #AB9C8C",
"c. c #AA9683",
"v. c #A39C93",
"b. c #AA9E92",
"n. c #A19E9A",
"m. c #9FA09E",
"M. c #ABA196",
"N. c #A5A19D",
"B. c #ABA39C",
"V. c #A7A197",
"C. c #B3A494",
"Z. c #B1A69B",
"A. c #B5A99D",
"S. c #979CA1",
"D. c #9C9EA1",
"F. c #9EA1A4",
"G. c #9EA3A8",
"H. c #A4A3A4",
"J. c #AAA6A3",
"K. c #ADA9A5",
"L. c #A4A6A9",
"P. c #A8A7A9",
"I. c #A6A9AD",
"U. c #ABABAC",
"Y. c #B2ABA4",
"T. c #B1AEAB",
"R. c #B4ABA4",
"E. c #BEB2A4",
"W. c #B5B1AD",
"Q. c #BAB3AC",
"!. c #A6ABB1",
"~. c #ACAEB2",
"^. c #B0AFB1",
"/. c #AEB1B5",
"(. c #B3B2B4",
"). c #B9B6B4",
"_. c #BDB9B6",
"`. c #B4B5BA",
"'. c #B8B7B9",
"]. c #B6B8BD",
"[. c #BBBABD",
"{. c #C1B7AD",
"}. c #C1BEBC",
"|. c #C1BAB4",
" X c #C3C0BF",
".X c #B6B9C1",
"XX c #BBBDC2",
"oX c #BEC0C6",
"OX c #BFC2C8",
"+X c #C2C2C5",
"@X c #C3C5CA",
"#X c #C7C9CE",
"$X c #C8C9CE",
"%X c #CACCD1",
/* pixels */
"~.U.U.J.N.1.0.6.u.] V V V D | ..U.P...) ~ e.) ) X.q.3.9.j.s.q.Y.T.[.J.N.H.~.S.5.h.U.T.V.%.&.[ Q +.b.b.b.X.! ^ K T =.-.B.K.P.S.5.",
"(.T.(.j.6.3...2.i.<.J v m V A j.(.(.6.D G 1.) X.` n.f.3.v.d.J.l.b.T.o.| ..D.G.g.h.N.m.f.w.*.[ $. .z.x.V.8.7.( K : I l.s.H.U.~.F.",
"7.P./.a.e.0...] 4.4.,.m N V ] 6.3.6.i.<.e.(.e.9.) a.P.3.n.e.e.o.O.z._ ) N g.I.D.G.G.F.w.q.q.%.| o.@.{ &.X.X.o.> : ; ^ m <.i.F.P.",
"1.d.g.i.a.o.3.G 4.4.,.G N N G <.1.<.<.<.a.`.d.A ~ s.n.s.Y.n.n.e.^ &.8.X.J g.F.D.L.F.f.q.X.t.q.W X.q.[ o.8.8.6.'   ; ! A 6.g.g.F.",
"3.a.6.a.e.B.N.5.5.,.<.` m m V 6.2.Z m G ..H.f.$.X.9.s.J.R.Q.U.n.b.z.s.8.3.!.j.s.h.F.X.q.q.@.%.X.X.O.U ~ X.l.c.( :   R 1.6.1.h.h.",
"a.i.<.0.e.W.T.,.y.J J G v k m ~ ) G B B o.6.n.e.r.l.r.J.R.W.K.j.V.l.r.n.f.D.d.s.e.e.t.e.q.%. .[ [  .j 3. .v.l.-.K :  .$.3.) g.S.",
"j.1...o.3.Z.r.m ` 2.<.J N Z C C A B B B ~ C ~ 7.) 9.e.s.v.n.R.s.r.8.9.n.s.g.g.S.0.q.q.r.O.&. .~ A x W | ~ 8.V.N.E I n.9.3.! G a.",
"L.] 1.3.%.w.V...C 1.,.J G G ) B C ! Z k B ~ N a ~ s.1.a.s.s.J.v.7.r.e.j.j.g.a.S.F.e.d.~ [ q...~ l [  .| B @.r.n.I E K.f.X.1.A h.",
"~.9.P.n.8.7.T.a.D.F.u.4.4.` ` B B x B z g ! A l ) 7.6.1.~ r.9.7.v.r.v.n.e.d.6.d.d.^.q.X. . .X.~ P X.$.! P ! ' ;.Q e l.^.3.! ` F.",
"H.d.J.T.b.l.z.9.j.XX!.u.5.u.` m ) A x N N | A  .8.1.^ e.e.e.! ! f.q.n.%.X.a.6.D.H.P.r.$.$.o.[ A 9.9._ P ! ! ' +.I e $.l._ E 6.f.",
"J.H.P.1.s.s.' ! 1.!.~.~.u.1.9.` B.%.| A A q.q.q.w.' ) e.d.9.R _ | 8.r.r.^ d.1.g.j.H.f.@.~ X.o.^ 9.) X.! P P / E K = ! ) B P $.d.",
"j.j.`.N.r.l.9.6.f.H.L.!.I.P./.J.).r.o.X.q.B.v.7.v.J.) 0.a.X.1.X.$.[ { &.+.a.$.9.e.n.v.%.[ | G [ f.s.s.' ;.b.x.Y > - 7.$.U p ! 0.",
"3.d.U.T.n.b.v.v.v.n.h.D.S.g.D.P.K.7.7. .J.W.r.7.$.l.6.` 9.X.k.r.@.Y { #.*.H.s.` 6.w.%.r.3.3.3.e.H.N.k.' r.l.Z.k.p - 7.' l r ! ..",
"9.j.J.F.s.v.v.v.j.n.a.a.u.5.5.H.J.s.r. .B.).k.&.w.q.! ) 9.8.l.k.w.@.&.w. .1.X.X.e.J.e.N.s.v.v.0.9.9.' E s.N.x.c.Q Y r.r.P P B ) ",
"v.H.(.^.^.J.J.n.n.~.D.F.h.u.u.F.H.z.O.~ b.|.B.x.b.l.9.6.a.n.x.l.w.O. .w.%.1.%.3.H.~.H.n.f.V.N.6.s.s.$.^ 8.r.k.;.( ( 7.$.P ' ) ) ",
"[.[.[.P.U.U.}.T.~.XX`.G.4.5.u.a.v.v.r.8.z.C.b.c.z.8.7.9.v.n.v.v.V.@.Q %.+...6.3.e.D.j.K.N.N.N.z.7.g.8.' w.l.l.k.( ( 8.q.L ' v.6.",
"XX@X@X+X).Z.C.r.a.XX`.D.,.,.u.9.l.l.w.%.l.z.8.' >.z.l.F.P.H.U.l.l.l.' &.E ) 3.` H.j.n.b.r.J.J.P.9.P.s.' f.n.;.k.( T ;.n.I E 8.6.",
"[.XX+X).}._.[.l.7.P..XI.i.i.1.r.8.l.w.o.w.8.+.' &.;.n.n.N.H.h.9.e.l.q.$.' ^ B C 9.9.l.n.l.n.B.T.P.P.v.' P.P.;.x.;.' b.N.L ' 9.9.",
"T.T.).R.+X+X@X).w.T..X.X!.L.i.s.l.b.8.o.r.8.w.' #.&.z.d.F.n.a.R ~ 7.8.&.' 1.~ ~ _ r.H.T.K.K.n.R.x.Z.Z.' P.f./ l.b.b.Z.Z.L E 7.i.",
"H.T.).[.+X}.@XQ.R..XXX.XL.L.g.n.l.b.7.$.7.%.z.+.&.&.r.s.a.j.a.` R E &.l.&.3.` 6.f.K.P.H.(.P.T.T.b.l.Z.c.^.H.8.J.T.R.Z.Z.$.' 9.s.",
"J.T.W.'.+XY.(.Z.b.`.`./.L.h.d.n.t.k.$.X.7.$.z.' 8.&.k.e.d.j.9.%.R ^ 8.s.k.9.g.F.P.W.).^.U.U.'.'.'.(.b.J.(.T.P.n.P.x.;.x.B.9.L.D.",
"W.W.(.[.+XW.U.B.v.~.~.~.H.u.f.l.w.w.%.%.l.&.k.( ;.{ 8.s.j.N.&.} +.@.7.r.q.6.a.D.~.W.W.(.U.P.(.`.'..XR.^.(.P.P.j.n.( ' l.b.b.L.L.",
"U.W.(.[.'.N.T.B.b.n.~..X~.d.n.n.l.$.)  .k.&.k./ z.+.8.r.v.k.c.>.+.l.n.q.1.e.9.g.W.'.T.(.P.U.`.`./..X.XXX'.P.j.l.r.Y ;.b.^.s.s.G.",
"e.7.z.). X X}.Z.b.+.D.P.n.6.n.B.q.^ R ~ l.z.k.( z.@.l.#.#.k.k.>.( 7.n.r.r.0.D.!..X).K.W.'./.~./.XX.X~.[.[.(.I.v.H.' Z.(.U.n.j.D.",
"r.[ q.T.}.+X XY.&.E ) i.e.3.n.n.X.[ W R w.A.z.{ *.@.w.l.l.j.n.k.k.$.r.j.s.6.F.`..XT.J.K.`.~./.~..X.X.XXXXX'..XW.'.v.n.H.P.v.f.j.",
"Q.v.q.K.+X XU.n.>. .B ..0.9.l.v.X. .[ B @.x.w.W #.c.v.V.H.H.U.U.J.s.j.s.f.e.g.~.`.J.8.v.U.P.N.~.L.I.~.~..X/.~.K.K.8.8.U.~.H.n.f.",
"T.Q.[.XX}.+XU.B.b.w.1.6.d.s.v.z.q.q.r.W $.%.{ x *.x.B.V.H.H.n.F.a.9.r.e.r.6.a.a.L.' 7.r.v.s.v.N.D.j.D.L.(.a.D m D i.B.~.^.l.%.s.",
"C.T.(.'.'.@X'.K.k.&.9.u.9.e.l.r.x.V.x.@.+.U i U z.x.x.N.s.j.n.j.3.3.a.s.s.9.a.6.' 7.7.%.q.q.s.F.g.6.a.o.3.` 7.v.D.` s.H.`.n.l.7.",
"M.W.(.[.XX@X_.B.O._ 9.6.3.e.l.n.U.B.C.>.@.j w E w.l.x.e.g.j.7.3.1.X.j.n.j.<.h.5.6.7.e.9.8.' v.D.a.....9.9.s.P.R.}.[.^.U..XJ.l.l.",
"Z.W.`.'.(.[.XXY.' ^ 7.9.s.f.e.T.U.B.Z.z.>.[ ~ [ *.z.z.t.d.d.3.3.a.q.j.j.m.a.6.6.s.9.n.v.r.r.v.j.9.] ] <.i.j.D.T.'.[.XX`.`.P.B.P.",
"W.`.XXXX[.L.`.}.b.@.X.6.a.n.s.R.V.j.Z.l.>.k.w.q.$.k.l.f.j.j.N.r.s.e.N.L.J.j.S.D.K.J.P.n.J.v.J.g.2...` <.2.3.j.N.W.oXXX.X/.H.D.B.",
"W.XX.X].a.a.D.`.T.r.X.6.e.b.b.B.N.f.Y.>.#.*.*.@.@.*.l.t.N.L.H.g.m.e.D.L.U.j.D.P.R.K.K.B.J.v.n.F.9.1.` ] <.3.s.J.Q.@XXX`.H.n.9.s.",
"^.`.(.H.g.~.n.H.R.J.f.j.V.e.M.r.N.V.Z.>.+.@.*.{ %.8.z.7.j.h.d.1.q.H.U.P.j.6.a.J.K.Z.W.K.B.t.V.m.g.6.3.<.3.a.H.J.T.XX[.`.I.F.q.9.",
"/./..X[.[.U.D.D.b.T.`.(.e.X.q.P.Y.Z.x.>.>.t.w.@.O.8.M.9.i.0.1.] 3.f.U.H.q.u.7.n.B.N.U.J.J.f.N.q.g.j.H.g.a.P.U.U.Z.`.`.H.F.H.f.v.",
"U.`..X+XXX[.XX[.J.Y.'.`...f i.].W.A.Z.c.>.w.l.k.$.8.M.s.3.....<.....j.j.a.6.6.H.J.f.f.v.J.f.V.e.e.a.~.P.j.H.B.H.A..X[.`.P.~.H.H.",
"I./..X.X+X[.[.XXT.Q.`.H.F D D..X[.Q.E.C.>.O.*.x.%.r.V.e.1.D <.<.D ..a.D.3.6.g.D.d.q.j.m.N.t.w.r.a.6.j.e.F.~.(.J.x.XX`.XX/.T.K.n.",
"I./.XXoX@Xn.N.W.x.M.r.1.D a ../.'._.Q.A.z.8.%.@.$. .7...1.Z ] 0.$.` 2.a.9.2.9.g.| e.m.N.f.N.J.N.e.3.a.j.H.L.J.H.k./..X.X`.P.v.n.",
"n..XXXOX@X'.XXXXB.' ! ` D 8 J n.T.C.E.A.M.o.| l B R | ..0.u.9 ] 6.d.g.I.D.1.g.h.0.e.U.N.z.J.B.w.e...a.D.L.F.a.n.k.P.T.(.`.P.l.n.",
"D.p.g.~.XXXX(.^.7.! m G G 2.j.F.e.V.E.A.w._ k 7.~ k N <.6.,.d ] F <.D.!.U.6.u.<.] 6.F.f.e.N.N.t.e...3.6.D.F.F.n.' T.(.P.~.~.s.n.",
"u.J 5.~..X(./.`.v.! B ) o.f.U.K.t.m.V.&.W z z t.v._ N 7.m.d.0...h.5.5.D.L.6.3.B v ] e.f.3.e.t.w.X.7.6.a.L.~.U.f.' K.h.~.P.L.n.e.",
"D b D.~./..X$X$X_.o.| 0.a.J.Q.K.7.r.M.&. .B x t.r.o.| q.0.a.9.] <.5.h.F.f.1.Z Z V 1.d.9.3.e.v.@.' s.1.u.L.U.(.U.+.^.~.`.L.S.e.n.",
"g.g.~.~.~.@X%X$X_.Z.F.I.L.T.|.W...Y.z.*.t.W  .l.q.*...] ] M ] y f Z g.N.F.A t A ` g.S.8.3.3.~ Q 8.9.3.1.n..X(.N.w.(.XX~.S.D.a.9.",
"/.H..XXX.X@X$X$X_._.`.oX~.V.Y.[.K._.Z.V.w.x X.W x  . .] ] d ] a f ..F.f.n.X.G ) 2.u.d.f.e.o.B l $.6.u.2.n./.P.P.x. X/.I.F.H.s.3.",
"(..XoXXX^.XXOX@X[.}.[.oX/.m.t.U.6.K.w.t.N.O.] 3 i @.%.] ] ] ..0.9.H.D.a.e.1.1.1.6.a.a.e.7...A C 1.! 9.6.5.9.e.N.M..XP.~.G.H.S.9.",
"}.XX$X[.^..X'.(.+XY.(.oX/.K.m.m.] o.o.Y.Y.z.| x [ [ x g i ] ,.p.S.a.m t v 1.6.9.6.a.a.9.1...1...C ) 2.6.J 6.j.f.Z.`./.I.I.G.j.a.",
"'.'.@X$X@X'.D.^.+X).`.`.I.m.q.*.| ] d q.s.Y.w.] 0 0 s 3 t ] 0.m.p.<.b J V v 1.i.0.5.u.7.8.3.q.1.A ` G ` J g.!.P.C./././.F.g.j.D.",
"L..X@X$X@XL.F.P.XXoX`.!.H.K.B z ..C ] | x X.m 3 w ] ] i f V a a h.S.6.t D b ,.a.6.9.0.9.$.3.G ) C v 5.S.!.I.L.f.w.(././.D.D.S.a.",
"^.XX.XOXP.D.D.D.m.~.m.m.I.P.B x ..N & & 4 ] % 3 w * i k | ] g % ` f.e.M ,.H ,.a.6.X.1.7.7.e.q.8.m M H 5.G.L.j.s.w./.~.~.S.g.H.H.",
"XX@XoX+X~.g.u.S.y.^.L.H.6.G 8.b.*.8 % + 3 1 0 * * $ * { t.0.m h ] ] ] ] ] y ] ] ] r ] { ] [ o.o.) M i.!.`.L.a.F.k.~.P./.p.2.6.D.",
"XX@X[..X(.G.u.p.J m M S.,.q H.J.*.i 3 % 3 s 0 [ 0 * w ] z ] ] a * ] i 1 + o ] ] ] ] i ] ] ] q.%.6.G ,.D.I.a.<.9._ F.a.F.S.h.a.a.",
"XXOX[.P.N.U.~.,., . 7 J 2...d.W.V.] 3 3 & * o.] 0 * * 0 o 3 h a * 3 y a 3 % 1 ] ] ] * j ] p ] ] ] F D u.<.b M 1.! a.1.S.d.a.i.u.",
"XXXX.X/.`.P.` O , q b J 5.,.` U.f.i g 3 & ] ] @ 0 0 $ $ o 3 h 8 6 3 % y ] 3 ] ] [ ] ] [ ] r k g ..J H y.5.F n ` ^ 6.) F.H.D.i.u.",
".X/./..XXXP.f 7 3 t 2.g.0.e.Z i.] 3 ] 2 2 o.4 % $ & & $ & % i 9 3 % % u i 6 ] m.*.d.o.] @.] z k ` D ,.u.g.<.V ` ! 6.i.L.P.D.h.0.",
".XG.`.XX(.p.S.a.7 , d v v t 2 t q 2 @ % % d.m.] % q 0 $ & * h < % + % y ] i ] ] ] o.*.%.] ] [ ] ` V F ,.5.,.G a.e.' 9.g.D.S.i.u.",
".XXX.X.X`.D.h.h.v w G ,.t q t n ] @ @ + g 0.G.m.] ] ] * % * i 8 % + o 7 ] 3 % ] ] ] ] ] N ] e.m.s.6.,.F 5.G <.0.1.n.6.1.5.u.2.u.",
"XX@XoXI.F 7 0 H.P._ s.p.V Z v f ] z @ % % d ] 0.q.] ] @ % % % 8 % o % 3 % % 3 i ] ] ] ] ] o.7.X.$.n.u.,.5.,.0.S.` v.a.,.G ,.<.,.",
"XX+XoXh.D M <.(.n.v.h.a.G.j...M 7 2 3 y @ @ i 0.] ] h < < + < < % 2 7 4 % h ] ] c ] ] ] M x [ [ r.N.F.h.] i.g.h.j.2.S.a.4.,.2.,.",
"`.oX@XoXXXF.I.U.2.k <.p.!.D.2.O % 1 2 i 3 1 % 4 o % % + 9 ] 9 < % 7 ] ] ] d.G.y h 5.] ] ] m.t.*.^ | F.F.h.i.0.2.1.a.s.u.F <.u.,.",
"K.W.XXoXXX~.~.I.H._ 1.u./.L.v # % 2 % 4 % 4 1 3 @ % + + < ] ] 9 6 ] ] ] 0.0.] ] b p.] 0.o.m.m.{ I t.G.g.h.u.0.2.1.s.3.a.6.u.a.F ",
"j.T.W.~.~.F.~./.G.1.p.u.D.S.7 , 4 * & 4 ] % 1 % i + + % % u < ] ] ] ] ,.m.h.,.] b i.G.m.e.6.m.o.O.e.0.G.D.a.0.m.6.` $.6.,.5.5.v ",
"V I._./.U.I.!.~.F.$.<.u.5.D n a 6 6 y % 9 ] i * ] 2 3 7 + < 9 ,.G.!.!./.i.d.] ] ] ,.] y.F.o.2.5.m...e.G.L.j.F.m.7.m s A ` D M g ",
"h e.'.[.`.!.!.h.s.8.6.H b 8 n 6 % 9 i % ] ] o.] g g d 7 < < 9 ,.S.!.!.,.] 0.] ] p.,.] ,.0.] 5.6.0.f.m.H.g.e.f.a.1.N s A D V F m ",
"F 2.U.F.I./.!.i.1.j.6.b d 9 O o + 9 ] u ] G.] ] h h h ] ,.] < u S.S.G.G.!.,.,.,.p.y.,.] a.d.2.g.m.m.N.m.F.L.F.j.d.$.E ..G Z 4.2.",
"m.] ] c y.!.~.].~.s.p.b 4 6 + . + ] ] ] 0.m.] 8 i u u ] ,.] ] ,.,.] S.!.!.!.,.] I.i.i.d.m.d.e.0.u.5.a.f.G.G.a.F.H.w.8.6.6.<.y.y."
};
